<?xml version="1.0" encoding="UTF-8"?>
<svg id="Layer_2" data-name="Layer 2" xmlns="http://www.w3.org/2000/svg" viewBox="0 0 520.91 299.09">
  <defs>
    <style>
      .cls-1 {
        fill: none;
        stroke-width: 0px;
      }
    </style>
  </defs>
  <g id="Layer_1-2" data-name="Layer 1">
    <polygon class="cls-1" points="0 67.27 17.27 27.27 40.91 16.36 98.18 9.09 152.73 20 190.91 4.55 308.18 0 344.55 24.55 397.27 23.64 501.82 40 520.91 62.73 520.91 110 488.18 170.91 494.55 202.73 509.09 245.45 500.91 291.82 480 299.09 420 294.55 369.09 263.64 329.09 274.55 304.55 293.64 250 291.82 230.91 278.18 197.27 243.64 149.09 265.45 85.45 251.82 50.91 220.91 43.64 186.36 65.45 149.55 38.18 130.91 0 67.27"/>
  </g>
</svg>